<svg width="432" height="144" xmlns="http://www.w3.org/2000/svg" xmlns:xlink="http://www.w3.org/1999/xlink" overflow="hidden"><g><rect x="0" y="0" width="432" height="144" fill="#FFFFFF"/><rect x="7.50005" y="19.5001" width="26" height="31" stroke="#172C51" stroke-width="1.33333" stroke-miterlimit="8" fill="#4472C4"/><text fill="#FFFFFF" font-family="DFKai-SB,DFKai-SB_MSFontService,sans-serif" font-weight="400" font-size="24" transform="translate(7.9148 43)">如</text><rect x="35.5001" y="19.5001" width="26" height="31" stroke="#172C51" stroke-width="1.33333" stroke-miterlimit="8" fill="#4472C4"/><text fill="#FFFFFF" font-family="DFKai-SB,DFKai-SB_MSFontService,sans-serif" font-weight="400" font-size="24" transform="translate(35.8305 43)">之</text><rect x="63.5001" y="19.5001" width="26" height="31" stroke="#172C51" stroke-width="1.33333" stroke-miterlimit="8" fill="#4472C4"/><text fill="#FFFFFF" font-family="DFKai-SB,DFKai-SB_MSFontService,sans-serif" font-weight="400" font-size="24" transform="translate(64.0006 43)">何</text><rect x="92.5001" y="19.5001" width="25" height="31" stroke="#172C51" stroke-width="1.33333" stroke-miterlimit="8" fill="#4472C4"/><text fill="#FFFFFF" font-family="DFKai-SB,DFKai-SB_MSFontService,sans-serif" font-weight="400" font-size="24" transform="translate(92.393 43)">則</text><rect x="7.50005" y="82.5001" width="19" height="26" stroke="#00B050" stroke-linejoin="round" stroke-miterlimit="10" fill="none"/><text fill="#00B050" font-family="PMingLiU,PMingLiU_MSFontService,sans-serif" font-weight="400" font-size="16" transform="translate(8.47496 100)">像</text><path d="M0.331478-0.0351182 3.70173 31.7764 3.03877 31.8467-0.331478 0.0351182ZM7.47213 23.5012 3.43995 32.4695-2.38191 24.5451C-2.4909 24.3968-2.45899 24.1881-2.31063 24.0791-2.16227 23.9701-1.95364 24.0021-1.84465 24.1504L3.63888 31.6142 3.06624 31.6749 6.8641 23.2278C6.93959 23.0599 7.1369 22.985 7.3048 23.0604 7.47271 23.1359 7.54762 23.3332 7.47213 23.5012Z" fill="#4472C4" transform="matrix(-1 0 0 1 19.9398 50.5001)"/><rect x="27.5001" y="82.5001" width="22" height="26" stroke="#00B050" stroke-linejoin="round" stroke-miterlimit="10" fill="none"/><text fill="#00B050" font-family="PMingLiU,PMingLiU_MSFontService,sans-serif" font-weight="400" font-size="16" transform="translate(30.385 100)">它</text><path d="M0.320064-0.093113 9.58134 31.7414 8.94121 31.9276-0.320064 0.093113ZM11.8308 22.9299 9.446 32.4694 2.31604 25.6979C2.18255 25.5712 2.17711 25.3602 2.30389 25.2267 2.43066 25.0932 2.64165 25.0878 2.77514 25.2145L9.49075 31.5925 8.93782 31.7534 11.184 22.7682C11.2287 22.5896 11.4096 22.481 11.5882 22.5257 11.7668 22.5703 11.8754 22.7513 11.8308 22.9299Z" fill="#4472C4" transform="matrix(-1 0 0 1 47.9456 50.5001)"/><path d="M76.5953 50.1806 186.288 82.8688 186.097 83.5077 76.4049 50.8195ZM180.103 76.2037 186.828 83.3777 177.273 85.7002C177.094 85.7437 176.914 85.6339 176.87 85.455 176.827 85.2762 176.937 85.0959 177.116 85.0524L186.115 82.8648 185.951 83.4167 179.617 76.6597C179.491 76.5253 179.498 76.3144 179.632 76.1885 179.766 76.0626 179.977 76.0694 180.103 76.2037Z" fill="#4472C4"/><path d="M104.58 50.1764 234.491 82.2208 234.331 82.868 104.42 50.8237ZM227.996 75.8589 235.056 82.7035 225.623 85.4798C225.446 85.5318 225.261 85.4307 225.209 85.2541 225.157 85.0775 225.258 84.8922 225.435 84.8402L234.319 82.2253 234.182 82.7844 227.532 76.3376C227.4 76.2095 227.397 75.9984 227.525 75.8662 227.653 75.7341 227.864 75.7308 227.996 75.8589Z" fill="#4472C4"/><rect x="120.5" y="19.5001" width="25" height="31" stroke="#172C51" stroke-width="1.33333" stroke-miterlimit="8" fill="#4472C4"/><text fill="#FFFFFF" font-family="DFKai-SB,DFKai-SB_MSFontService,sans-serif" font-weight="400" font-size="24" transform="translate(120.563 43)">可</text><path d="M133.567 50.1734 289.778 82.0034 289.645 82.6566 133.433 50.8267ZM283.025 75.9111 290.358 82.4617 281.046 85.6208C280.872 85.6799 280.683 85.5865 280.623 85.4122 280.564 85.2378 280.658 85.0486 280.832 84.9894L289.603 82.014 289.488 82.5782 282.581 76.4083C282.443 76.2856 282.431 76.0749 282.554 75.9376 282.677 75.8003 282.887 75.7884 283.025 75.9111Z" fill="#4472C4"/><rect x="152.5" y="83.5001" width="69" height="25" stroke="#00B050" stroke-linejoin="round" stroke-miterlimit="10" fill="none"/><text fill="#00B050" font-family="PMingLiU,PMingLiU_MSFontService,sans-serif" font-weight="400" font-size="16" transform="translate(162.327 100)">怎麼辦</text><rect x="224.5" y="82.5001" width="22" height="25" stroke="#00B050" stroke-linejoin="round" stroke-miterlimit="10" fill="none"/><text fill="#00B050" font-family="PMingLiU,PMingLiU_MSFontService,sans-serif" font-weight="400" font-size="16" transform="translate(226.947 100)">才</text><rect x="249.5" y="82.5001" width="81" height="25" stroke="#00B050" stroke-linejoin="round" stroke-miterlimit="10" fill="#FFFFFF"/><text fill="#00B050" font-family="PMingLiU,PMingLiU_MSFontService,sans-serif" font-weight="400" font-size="16" transform="translate(257.503 100)">行</text><text fill="#00B050" font-family="Calibri,Calibri_MSFontService,sans-serif" font-weight="400" font-size="16" transform="translate(273.503 100)">/(</text><text fill="#00B050" font-family="PMingLiU,PMingLiU_MSFontService,sans-serif" font-weight="400" font-size="16" transform="translate(284.503 100)">可以</text><text fill="#00B050" font-family="Calibri,Calibri_MSFontService,sans-serif" font-weight="400" font-size="16" transform="translate(316.503 100)">)</text><rect x="52.5001" y="83.5001" width="96" height="25" stroke="#000000" stroke-width="1.33333" stroke-miterlimit="8" fill="#FFFFFF"/><text font-family="Calibri,Calibri_MSFontService,sans-serif" font-weight="400" font-size="16" transform="translate(63.6328 100)">(</text><text font-family="PMingLiU,PMingLiU_MSFontService,sans-serif" font-weight="400" font-size="16" transform="translate(68.4661 100)">這件事</text><text font-family="Calibri,Calibri_MSFontService,sans-serif" font-weight="400" font-size="16" transform="translate(116.466 100)">)</text><text font-family="PMingLiU,PMingLiU_MSFontService,sans-serif" font-weight="400" font-size="16" transform="translate(121.299 100)">要</text></g></svg>