<svg width="432" height="144" xmlns="http://www.w3.org/2000/svg" xmlns:xlink="http://www.w3.org/1999/xlink" overflow="hidden"><g><rect x="0" y="0" width="432" height="144" fill="#FFFFFF"/><rect x="7.50005" y="19.5001" width="26" height="31" stroke="#172C51" stroke-width="1.33333" stroke-miterlimit="8" fill="#4472C4"/><text fill="#FFFFFF" font-family="DFKai-SB,DFKai-SB_MSFontService,sans-serif" font-weight="400" font-size="24" transform="translate(7.9148 43)">事</text><rect x="35.5001" y="19.5001" width="26" height="31" stroke="#172C51" stroke-width="1.33333" stroke-miterlimit="8" fill="#4472C4"/><text fill="#FFFFFF" font-family="DFKai-SB,DFKai-SB_MSFontService,sans-serif" font-weight="400" font-size="24" transform="translate(35.8305 43)">之</text><rect x="63.5001" y="19.5001" width="26" height="31" stroke="#172C51" stroke-width="1.33333" stroke-miterlimit="8" fill="#4472C4"/><text fill="#FFFFFF" font-family="DFKai-SB,DFKai-SB_MSFontService,sans-serif" font-weight="400" font-size="24" transform="translate(64.0006 43)">以</text><rect x="3.50005" y="64.5001" width="53" height="16" stroke="#00B050" stroke-linejoin="round" stroke-miterlimit="10" fill="none"/><text fill="#00B050" font-family="PMingLiU,PMingLiU_MSFontService,sans-serif" font-weight="400" font-size="16" transform="translate(13.5594 78)">事奉</text><path d="M20.7757 50.3126 30.0491 63.9475 29.4979 64.3225 20.2244 50.6875ZM29.4658 54.8725 30.1455 64.682 21.2721 60.4452C21.1059 60.3659 21.0356 60.1669 21.1149 60.0008 21.1942 59.8347 21.3932 59.7643 21.5593 59.8436L29.9171 63.8342 29.441 64.158 28.8007 54.9186C28.788 54.7349 28.9265 54.5757 29.1102 54.563 29.2938 54.5503 29.453 54.6888 29.4658 54.8725Z" fill="#4472C4"/><rect x="37.5001" y="85.5001" width="53" height="19" stroke="#00B050" stroke-linejoin="round" stroke-miterlimit="10" fill="none"/><text fill="#00B050" font-family="PMingLiU,PMingLiU_MSFontService,sans-serif" font-weight="400" font-size="16" transform="translate(47.9239 100)">他們</text><path d="M48.8026 50.3601 64.6189 84.5395 64.0139 84.8195 48.1975 50.64ZM65.5237 75.4907 64.5941 85.2797 56.5307 79.6522C56.3797 79.5468 56.3427 79.339 56.4481 79.188 56.5534 79.0371 56.7612 79.0001 56.9122 79.1055L64.5071 84.406 63.9845 84.6478 64.86 75.4277C64.8774 75.2444 65.0401 75.1099 65.2233 75.1273 65.4066 75.1447 65.5411 75.3074 65.5237 75.4907Z" fill="#4472C4"/><path d="M76.7924 50.3398 107.033 105.518 106.449 105.838 76.2077 50.6603ZM107.322 96.4281 107.059 106.258 98.6318 101.191C98.4741 101.096 98.4231 100.891 98.5179 100.733 98.6128 100.575 98.8176 100.524 98.9754 100.619L106.913 105.392 106.408 105.669 106.655 96.4103C106.66 96.2262 106.813 96.081 106.997 96.086 107.181 96.0909 107.326 96.244 107.322 96.4281Z" fill="#4472C4"/><rect x="97.5001" y="105.5" width="19" height="20" stroke="#00B050" stroke-linejoin="round" stroke-miterlimit="10" fill="none"/><text fill="#00B050" font-family="PMingLiU,PMingLiU_MSFontService,sans-serif" font-weight="400" font-size="16" transform="translate(98.5585 121)">用</text><rect x="142.5" y="17.5001" width="44" height="13" stroke="#00B050" stroke-linejoin="round" stroke-miterlimit="10" fill="none"/><text fill="#00B050" font-family="PMingLiU,PMingLiU_MSFontService,sans-serif" font-weight="400" font-size="12" transform="translate(152.116 28)">獸皮</text><rect x="304.5" y="19.5001" width="25" height="30" stroke="#172C51" stroke-width="1.33333" stroke-miterlimit="8" fill="#4472C4"/><text fill="#FFFFFF" font-family="DFKai-SB,DFKai-SB_MSFontService,sans-serif" font-weight="400" font-size="24" transform="translate(304.207 43)">不</text><rect x="332.5" y="19.5001" width="25" height="30" stroke="#172C51" stroke-width="1.33333" stroke-miterlimit="8" fill="#4472C4"/><text fill="#FFFFFF" font-family="DFKai-SB,DFKai-SB_MSFontService,sans-serif" font-weight="400" font-size="24" transform="translate(332.467 43)">得</text><rect x="360.5" y="19.5001" width="25" height="30" stroke="#172C51" stroke-width="1.33333" stroke-miterlimit="8" fill="#4472C4"/><text fill="#FFFFFF" font-family="DFKai-SB,DFKai-SB_MSFontService,sans-serif" font-weight="400" font-size="24" transform="translate(360.493 43)">免</text><rect x="388.5" y="19.5001" width="25" height="30" stroke="#172C51" stroke-width="1.33333" stroke-miterlimit="8" fill="#4472C4"/><text fill="#FFFFFF" font-family="DFKai-SB,DFKai-SB_MSFontService,sans-serif" font-weight="400" font-size="24" transform="translate(388.52 43)">焉</text><path d="M0.13688 0.303932-0.788439 0.720663-0.660061 0.618595-1.55631 1.79631-1.51851 1.73325-2.35663 3.56324-2.34188 3.52499-3.09279 5.89854-3.08547 5.87147-3.72011 8.67988-3.7159 8.65781-4.2052 11.7924-4.20187 11.7618-4.62819 18.5744-4.62852 18.528-4.3625 21.9887-4.3696 21.9413-3.6178 25.2933-3.63071 25.2498-2.46252 28.3844-2.48151 28.3425-0.966346 31.1509-1.02627 31.0712 1.39517 33.4467 0.928299 33.9226-1.52913 31.5118-3.07917 28.6388-4.26333 25.4614-5.02536 22.0638-5.29501 18.556-4.86627 11.7048-4.37286 8.54389-3.73264 5.71084-2.9713 3.30432-2.10923 1.42202-1.13934 0.147541-0.13688-0.303932ZM2.07101 29.5675 6.88283 37.1072-2.03598 36.4329Z" fill="#4472C4" transform="matrix(-6.12323e-17 -1 -1 6.12323e-17 201.607 37.3829)"/><rect x="135.5" y="114.5" width="45" height="13" stroke="#00B050" stroke-linejoin="round" stroke-miterlimit="10" fill="none"/><text fill="#00B050" font-family="PMingLiU,PMingLiU_MSFontService,sans-serif" font-weight="400" font-size="12" transform="translate(145.236 124)">珍珠</text><rect x="346.5" y="122.5" width="84" height="21" stroke="#00B050" stroke-linejoin="round" stroke-miterlimit="10" fill="none"/><text fill="#00B050" font-family="PMingLiU,PMingLiU_MSFontService,sans-serif" font-weight="400" font-size="16" transform="translate(355.937 138)">狄侵略我</text><path d="M0.328482-0.0566621 12.7988 72.2363 12.1418 72.3496-0.328482 0.0566621ZM16.0216 63.7337 12.5829 72.9459 6.25666 65.4181C6.13821 65.2772 6.15645 65.0669 6.29738 64.9485 6.43832 64.83 6.64858 64.8483 6.76703 64.9892L12.7257 72.0795 12.1582 72.1774 15.3971 63.5005C15.4614 63.3281 15.6534 63.2405 15.8259 63.3048 15.9984 63.3692 16.086 63.5612 16.0216 63.7337Z" fill="#4472C4" transform="matrix(-1 0 0 1 401.083 49.5001)"/><rect x="322.5" y="100.5" width="57" height="19" stroke="#00B050" stroke-linejoin="round" stroke-miterlimit="10" fill="none"/><text fill="#00B050" font-family="PMingLiU,PMingLiU_MSFontService,sans-serif" font-weight="400" font-size="16" transform="translate(334.226 115)">避免</text><path d="M0.305199-0.134032 22.3069 49.9652 21.6965 50.2333-0.305199 0.134032ZM23.3891 40.9365 22.2679 50.7055 14.3163 44.921C14.1674 44.8127 14.1345 44.6042 14.2428 44.4553 14.3511 44.3064 14.5596 44.2735 14.7085 44.3818L22.198 49.8302 21.6708 50.0617 22.7268 40.8605C22.7478 40.6776 22.9131 40.5464 23.096 40.5674 23.2789 40.5884 23.4101 40.7536 23.3891 40.9365Z" fill="#4472C4" transform="matrix(-1 0 0 1 372.767 49.5001)"/><rect x="302.5" y="79.5001" width="21" height="20" stroke="#00B050" stroke-linejoin="round" stroke-miterlimit="10" fill="none"/><text fill="#00B050" font-family="PMingLiU,PMingLiU_MSFontService,sans-serif" font-weight="400" font-size="16" transform="translate(304.519 94)">不</text><rect x="326.5" y="79.5001" width="20" height="20" stroke="#00B050" stroke-linejoin="round" stroke-miterlimit="10" fill="none"/><text fill="#00B050" font-family="PMingLiU,PMingLiU_MSFontService,sans-serif" font-weight="400" font-size="16" transform="translate(328.08 94)">能</text><path d="M0.320386-0.0919995 8.52523 28.4812 7.88446 28.6652-0.320386 0.0919995ZM10.8053 19.6778 8.38741 29.2089 1.28104 22.4127C1.14799 22.2855 1.14329 22.0745 1.27052 21.9414 1.39776 21.8084 1.60877 21.8037 1.74181 21.9309L8.43521 28.3322 7.88172 28.4911 10.1591 19.5139C10.2044 19.3354 10.3858 19.2275 10.5642 19.2727 10.7426 19.318 10.8506 19.4994 10.8053 19.6778Z" fill="#4472C4" transform="matrix(-1 0 0 1 344.887 49.5001)"/><path d="M0.330708-0.0417521 3.93548 28.5108 3.27406 28.5943-0.330708 0.0417521ZM7.53934 20.1617 3.68765 29.209-2.2918 21.4029C-2.40375 21.2567-2.37603 21.0475-2.22988 20.9356-2.08374 20.8236-1.87451 20.8513-1.76256 20.9975L3.86941 28.35 3.29809 28.4221 6.92595 19.9006C6.99806 19.7312 7.19383 19.6523 7.36321 19.7244 7.5326 19.7965 7.61145 19.9923 7.53934 20.1617Z" fill="#4472C4" transform="matrix(-1 0 0 1 317.188 49.5001)"/><rect x="189.5" y="7.50005" width="25" height="30" stroke="#172C51" stroke-width="1.33333" stroke-miterlimit="8" fill="#4472C4"/><text fill="#FFFFFF" font-family="DFKai-SB,DFKai-SB_MSFontService,sans-serif" font-weight="400" font-size="24" transform="translate(189.231 31)">皮</text><rect x="216.5" y="7.50005" width="25" height="30" stroke="#172C51" stroke-width="1.33333" stroke-miterlimit="8" fill="#4472C4"/><text fill="#FFFFFF" font-family="DFKai-SB,DFKai-SB_MSFontService,sans-serif" font-weight="400" font-size="24" transform="translate(216.529 31)">幣</text><rect x="189.5" y="46.5001" width="25" height="30" stroke="#172C51" stroke-width="1.33333" stroke-miterlimit="8" fill="#4472C4"/><text fill="#FFFFFF" font-family="DFKai-SB,DFKai-SB_MSFontService,sans-serif" font-weight="400" font-size="24" transform="translate(189.231 69)">犬</text><rect x="189.5" y="84.5001" width="25" height="31" stroke="#172C51" stroke-width="1.33333" stroke-miterlimit="8" fill="#4472C4"/><text fill="#FFFFFF" font-family="DFKai-SB,DFKai-SB_MSFontService,sans-serif" font-weight="400" font-size="24" transform="translate(189.231 108)">珠</text><path d="M202.269 115.639 201.751 116.767 200.291 117.858 198.122 118.834 195.343 119.697 192.066 120.425 187.196 121.05 187.111 120.389 191.966 119.765 191.936 119.77 195.186 119.049 195.159 119.056 197.905 118.203 197.867 118.218 199.984 117.266 199.922 117.303 201.284 116.284 201.181 116.412 201.663 115.361ZM188.734 124.628 180.5 121.136 188.234 116.644Z" fill="#4472C4"/><rect x="216.5" y="46.5001" width="25" height="30" stroke="#172C51" stroke-width="1.33333" stroke-miterlimit="8" fill="#4472C4"/><text fill="#FFFFFF" font-family="DFKai-SB,DFKai-SB_MSFontService,sans-serif" font-weight="400" font-size="24" transform="translate(216.47 69)">馬</text><rect x="217.5" y="84.5001" width="25" height="31" stroke="#172C51" stroke-width="1.33333" stroke-miterlimit="8" fill="#4472C4"/><text fill="#FFFFFF" font-family="DFKai-SB,DFKai-SB_MSFontService,sans-serif" font-weight="400" font-size="24" transform="translate(217.387 108)">玉</text><rect x="243.5" y="17.5001" width="44" height="13" stroke="#00B050" stroke-linejoin="round" stroke-miterlimit="10" fill="none"/><text fill="#00B050" font-family="PMingLiU,PMingLiU_MSFontService,sans-serif" font-weight="400" font-size="12" transform="translate(253.095 28)">布帛</text><path d="M228.817 37.2804 229.23 38.5558 229.155 38.4296 230.32 39.665 230.257 39.6127 232.068 40.7679 232.023 40.7439 234.371 41.7789 234.337 41.766 237.115 42.6408 237.086 42.633 240.187 43.3074 240.146 43.3011 246.886 43.8887 246.827 43.8888 250.251 43.5806 250.197 43.5902 253.513 42.7193 253.464 42.7362 256.566 41.3828 256.521 41.4065 259.3 39.6512 259.257 39.6834 261.605 37.6065 261.525 37.7126 262.142 36.4199 262.744 36.7069 262.098 38.0609 259.678 40.2005 256.856 41.9837 253.707 43.3575 250.339 44.2421 246.858 44.5554 240.067 43.9634 236.93 43.2812 234.119 42.3964 231.73 41.3436 229.863 40.1525 228.618 38.8324 228.183 37.4854ZM258.251 36.1133 265.214 30.5001 265.527 39.4389Z" fill="#4472C4"/><rect x="246.5" y="117.5" width="44" height="13" stroke="#00B050" stroke-linejoin="round" stroke-miterlimit="10" fill="none"/><text fill="#00B050" font-family="PMingLiU,PMingLiU_MSFontService,sans-serif" font-weight="400" font-size="12" transform="translate(255.593 127)">玉器</text><path d="M0.0764395-0.32445 1.69092 0.0559152 3.2817 1.14944 4.73572 2.81024 6.02341 4.9395 7.11094 7.45704 7.58319 9.64596 6.93152 9.78655 6.46616 7.62955 6.48599 7.69144 5.42042 5.22474 5.44119 5.26505 4.1804 3.18029 4.21484 3.22736 2.80763 1.62002 2.8696 1.67514 1.36479 0.640719 1.47718 0.690478-0.0764395 0.32445ZM10.9909 7.75707 8.32934 16.2962 3.095 9.04347Z" fill="#4472C4" transform="matrix(1.83697e-16 1 1 -1.83697e-16 229.5 115.5)"/><path d="M290.5 9.50005C292.985 9.50005 295 13.1537 295 17.6607L295 64.8786C295 69.3856 297.015 73.0392 299.5 73.0392 297.015 73.0392 295 76.6929 295 81.1999L295 127.339C295 131.846 292.985 135.5 290.5 135.5" stroke="#4472C4" stroke-width="0.666667" stroke-miterlimit="8" fill="none" fill-rule="evenodd"/><path d="M11 126C7.96243 126 5.5 121.534 5.5 116.026L5.5 72.4348C5.5 66.9263 3.03757 62.4607-1.0026e-15 62.4607 3.03757 62.4607 5.5 57.9951 5.5 52.4865L5.5 9.97417C5.5 4.46559 7.96243-4.01037e-15 11-4.01037e-15" stroke="#4472C4" stroke-width="0.666667" stroke-miterlimit="8" fill="none" fill-rule="evenodd" transform="matrix(1 -1.22465e-16 -1.22465e-16 -1 121.5 133.5)"/></g></svg>