<svg width="1280" height="720" xmlns="http://www.w3.org/2000/svg" xmlns:xlink="http://www.w3.org/1999/xlink" overflow="hidden"><g><rect x="0" y="0" width="1280" height="720" fill="#FFFFFF"/><rect x="55.5001" y="66.5001" width="43" height="39" stroke="#172C51" stroke-width="1.33333" stroke-miterlimit="8" fill="#4472C4"/><text fill="#FFFFFF" font-family="PMingLiU,PMingLiU_MSFontService,sans-serif" font-weight="400" font-size="24" transform="translate(64.5549 94)">楚</text><rect x="101.5" y="66.5001" width="44" height="39" stroke="#172C51" stroke-width="1.33333" stroke-miterlimit="8" fill="#4472C4"/><text fill="#FFFFFF" font-family="PMingLiU,PMingLiU_MSFontService,sans-serif" font-weight="400" font-size="24" transform="translate(110.755 94)">有</text><rect x="147.5" y="66.5001" width="44" height="39" stroke="#172C51" stroke-width="1.33333" stroke-miterlimit="8" fill="#4472C4"/><text fill="#FFFFFF" font-family="PMingLiU,PMingLiU_MSFontService,sans-serif" font-weight="400" font-size="24" transform="translate(156.955 94)">祠</text><rect x="193.5" y="66.5001" width="44" height="39" stroke="#172C51" stroke-width="1.33333" stroke-miterlimit="8" fill="#4472C4"/><text fill="#FFFFFF" font-family="PMingLiU,PMingLiU_MSFontService,sans-serif" font-weight="400" font-size="24" transform="translate(203.155 94)">者</text><rect x="55.5001" y="129.5" width="68" height="39" stroke="#00B050" stroke-linejoin="round" stroke-miterlimit="10" fill="none"/><text fill="#00B050" font-family="PMingLiU,PMingLiU_MSFontService,sans-serif" font-weight="400" font-size="24" transform="translate(64.7548 157)">楚</text><text fill="#00B050" font-family="PMingLiU,PMingLiU_MSFontService,sans-serif" font-weight="400" font-size="24" transform="translate(88.7548 157)">國</text><path d="M77.7966 105.348 86.9528 123.191 86.3597 123.495 77.2035 105.652ZM89.6063 120.331 89.7 129.274 82.4887 123.983Z" fill="#4472C4"/><rect x="125.5" y="129.5" width="29" height="39" stroke="#00B050" stroke-linejoin="round" stroke-miterlimit="10" fill="none"/><text fill="#00B050" font-family="PMingLiU,PMingLiU_MSFontService,sans-serif" font-weight="400" font-size="24" transform="translate(127.41 157)">有</text><rect x="156.5" y="129.5" width="28" height="39" stroke="#00B050" stroke-linejoin="round" stroke-miterlimit="10" fill="none"/><text fill="#00B050" font-family="PMingLiU,PMingLiU_MSFontService,sans-serif" font-weight="400" font-size="24" transform="translate(158.21 157)">祠</text><rect x="187.5" y="129.5" width="28" height="39" stroke="#00B050" stroke-linejoin="round" stroke-miterlimit="10" fill="none"/><text fill="#00B050" font-family="PMingLiU,PMingLiU_MSFontService,sans-serif" font-weight="400" font-size="24" transform="translate(189.242 157)">管</text><path d="M123.773 105.309 136.603 123.623 136.057 124.006 123.227 105.691ZM138.841 120.427 140.155 129.274 132.289 125.017Z" fill="#4472C4"/><path d="M169.833 105.482 170.736 122.599 170.071 122.635 169.167 105.518ZM174.328 121.075 170.755 129.274 166.339 121.496Z" fill="#4472C4"/><path d="M0.287693-0.168356 10.8332 17.8522 10.2578 18.1889-0.287693 0.168356ZM13.3244 14.8495 13.9127 23.7744 6.41978 18.89Z" fill="#4472C4" transform="matrix(-1 0 0 1 215.413 105.5)"/></g></svg>