<svg width="432" height="144" xmlns="http://www.w3.org/2000/svg" xmlns:xlink="http://www.w3.org/1999/xlink" overflow="hidden"><g><rect x="0" y="0" width="432" height="144" fill="#FFFFFF"/><rect x="7.50005" y="19.5001" width="26" height="31" stroke="#172C51" stroke-width="1.33333" stroke-miterlimit="8" fill="#4472C4"/><text fill="#FFFFFF" font-family="DFKai-SB,DFKai-SB_MSFontService,sans-serif" font-weight="400" font-size="24" transform="translate(7.9148 43)">先</text><rect x="35.5001" y="19.5001" width="26" height="31" stroke="#172C51" stroke-width="1.33333" stroke-miterlimit="8" fill="#4472C4"/><text fill="#FFFFFF" font-family="DFKai-SB,DFKai-SB_MSFontService,sans-serif" font-weight="400" font-size="24" transform="translate(35.8305 43)">生</text><rect x="63.5001" y="19.5001" width="26" height="31" stroke="#172C51" stroke-width="1.33333" stroke-miterlimit="8" fill="#4472C4"/><text fill="#FFFFFF" font-family="DFKai-SB,DFKai-SB_MSFontService,sans-serif" font-weight="400" font-size="24" transform="translate(64.0006 43)">不</text><rect x="92.5001" y="19.5001" width="25" height="31" stroke="#172C51" stroke-width="1.33333" stroke-miterlimit="8" fill="#4472C4"/><text fill="#FFFFFF" font-family="DFKai-SB,DFKai-SB_MSFontService,sans-serif" font-weight="400" font-size="24" transform="translate(92.393 43)">羞</text><rect x="7.50005" y="70.5001" width="52" height="22" stroke="#00B050" stroke-linejoin="round" stroke-miterlimit="10" fill="none"/><text fill="#00B050" font-family="PMingLiU,PMingLiU_MSFontService,sans-serif" font-weight="400" font-size="16" transform="translate(17.1297 86)">先生</text><rect x="120.5" y="19.5001" width="25" height="31" stroke="#172C51" stroke-width="1.33333" stroke-miterlimit="8" fill="#4472C4"/><text fill="#FFFFFF" font-family="DFKai-SB,DFKai-SB_MSFontService,sans-serif" font-weight="400" font-size="24" transform="translate(120.563 43)">乃</text><path d="M133.626 50.1912 182.29 69.964 182.039 70.5816 133.375 50.8089ZM176.243 63.9366 182.968 70.5992 173.501 70.683C173.317 70.6847 173.167 70.5368 173.165 70.3527 173.164 70.1686 173.311 70.018 173.496 70.0164L182.162 69.9396 181.93 70.5097 175.773 64.4102C175.643 64.2806 175.642 64.0696 175.771 63.9388 175.901 63.808 176.112 63.807 176.243 63.9366Z" fill="#4472C4"/><rect x="148.5" y="19.5001" width="25" height="31" stroke="#172C51" stroke-width="1.33333" stroke-miterlimit="8" fill="#4472C4"/><text fill="#FFFFFF" font-family="DFKai-SB,DFKai-SB_MSFontService,sans-serif" font-weight="400" font-size="24" transform="translate(148.15 43)">有</text><path d="M160.585 50.1778 235.768 70.0555 235.598 70.7 160.415 50.8223ZM229.004 64.8456 236.521 70.5993 227.142 71.8857C226.96 71.9107 226.792 71.7831 226.767 71.6008 226.742 71.4184 226.869 71.2502 227.052 71.2252L235.638 70.0475 235.481 70.6424 228.598 65.375C228.452 65.2631 228.424 65.0539 228.536 64.9077 228.648 64.7615 228.857 64.7337 229.004 64.8456Z" fill="#4472C4"/><rect x="175.5" y="19.5001" width="25" height="31" stroke="#172C51" stroke-width="1.33333" stroke-miterlimit="8" fill="#4472C4"/><text fill="#FFFFFF" font-family="DFKai-SB,DFKai-SB_MSFontService,sans-serif" font-weight="400" font-size="24" transform="translate(175.737 43)">意</text><path d="M188.628 50.1922 236.261 69.9592 236.006 70.5749 188.372 50.8079ZM230.259 63.887 236.934 70.5993 227.468 70.6129C227.283 70.6131 227.134 70.4641 227.134 70.28 227.133 70.0959 227.282 69.9465 227.467 69.9462L236.133 69.9337 235.897 70.5021 229.786 64.3571C229.656 64.2265 229.657 64.0155 229.787 63.8857 229.918 63.7559 230.129 63.7564 230.259 63.887Z" fill="#4472C4"/><rect x="203.5" y="19.5001" width="25" height="31" stroke="#172C51" stroke-width="1.33333" stroke-miterlimit="8" fill="#4472C4"/><text fill="#FFFFFF" font-family="DFKai-SB,DFKai-SB_MSFontService,sans-serif" font-weight="400" font-size="24" transform="translate(203.324 43)">欲</text><path d="M215.587 50.1782 289.366 70.0518 289.192 70.6955 215.413 50.8219ZM282.626 64.8106 290.116 70.5992 280.732 71.842C280.549 71.8662 280.381 71.7379 280.357 71.5553 280.333 71.3728 280.461 71.2053 280.644 71.1811L289.236 70.0433 289.076 70.6375 282.218 65.3381C282.072 65.2256 282.045 65.0162 282.158 64.8705 282.271 64.7249 282.48 64.698 282.626 64.8106Z" fill="#4472C4"/><rect x="230.5" y="19.5001" width="26" height="31" stroke="#172C51" stroke-width="1.33333" stroke-miterlimit="8" fill="#4472C4"/><text fill="#FFFFFF" font-family="DFKai-SB,DFKai-SB_MSFontService,sans-serif" font-weight="400" font-size="24" transform="translate(230.953 43)">為</text><path d="M0.285519-0.172018 38.0437 62.4998 37.4727 62.8438-0.285519 0.172018ZM36.8145 54.0499 38.2052 63.4139 30.577 57.8078C30.4287 57.6988 30.3968 57.4902 30.5058 57.3418 30.6148 57.1935 30.8235 57.1616 30.9718 57.2706L37.9554 62.4029 37.4283 62.7205 36.1551 54.1478C36.128 53.9657 36.2537 53.7962 36.4358 53.7692 36.6179 53.7421 36.7875 53.8678 36.8145 54.0499Z" fill="#4472C4" transform="matrix(-1 0 0 1 228.705 42.5001)"/><rect x="258.5" y="19.5001" width="25" height="31" stroke="#172C51" stroke-width="1.33333" stroke-miterlimit="8" fill="#4472C4"/><text fill="#FFFFFF" font-family="DFKai-SB,DFKai-SB_MSFontService,sans-serif" font-weight="400" font-size="24" transform="translate(258.497 43)">收</text><path d="M270.747 50.2763 320.218 104.924 319.723 105.371 270.253 50.7238ZM317.387 96.8687 320.553 105.791 311.989 101.756C311.822 101.677 311.751 101.479 311.829 101.312 311.908 101.146 312.106 101.074 312.273 101.153L320.113 104.847 319.657 105.259 316.759 97.0916C316.697 96.9181 316.788 96.7276 316.962 96.666 317.135 96.6045 317.326 96.6952 317.387 96.8687Z" fill="#4472C4"/><rect x="285.5" y="19.5001" width="26" height="31" stroke="#172C51" stroke-width="1.33333" stroke-miterlimit="8" fill="#4472C4"/><text fill="#FFFFFF" font-family="DFKai-SB,DFKai-SB_MSFontService,sans-serif" font-weight="400" font-size="24" transform="translate(286.042 43)">責</text><path d="M298.809 50.3744 320.99 104.862 320.372 105.113 298.191 50.6257ZM321.086 96.3242 321.008 105.791 314.341 99.0698C314.211 98.9391 314.212 98.7281 314.343 98.5984 314.474 98.4688 314.685 98.4696 314.814 98.6003L320.918 104.753 320.348 104.985 320.419 96.3187C320.42 96.1347 320.571 95.9866 320.755 95.9881 320.939 95.9897 321.087 96.1401 321.086 96.3242Z" fill="#4472C4"/><rect x="313.5" y="19.5001" width="25" height="30" stroke="#172C51" stroke-width="1.33333" stroke-miterlimit="8" fill="#4472C4"/><text fill="#FFFFFF" font-family="DFKai-SB,DFKai-SB_MSFontService,sans-serif" font-weight="400" font-size="24" transform="translate(313.587 43)">於</text><path d="M0.497846-0.867265 96.0159 53.964 95.0202 55.6986-0.497846 0.867265ZM91.0325 47.3485 97.7729 56.1257 86.7944 54.7314C86.2465 54.6618 85.8588 54.1613 85.9284 53.6134 85.998 53.0655 86.4985 52.6778 87.0464 52.7474L95.644 53.8392 94.7249 55.4403 89.4463 48.5667C89.1099 48.1287 89.1923 47.5009 89.6303 47.1645 90.0683 46.8281 90.6961 46.9105 91.0325 47.3485Z" fill="#FF0000" transform="matrix(-1 0 0 1 325.773 49)"/><rect x="62.5001" y="70.5001" width="19" height="22" stroke="#00B050" stroke-linejoin="round" stroke-miterlimit="10" fill="none"/><text fill="#00B050" font-family="PMingLiU,PMingLiU_MSFontService,sans-serif" font-weight="400" font-size="16" transform="translate(63.4638 86)">不</text><rect x="84.5001" y="70.5001" width="70" height="22" stroke="#00B050" stroke-linejoin="round" stroke-miterlimit="10" fill="none"/><text fill="#00B050" font-family="PMingLiU,PMingLiU_MSFontService,sans-serif" font-weight="400" font-size="16" transform="translate(94.7676 86)">以為羞</text><rect x="156.5" y="70.5001" width="52" height="22" stroke="#00B050" stroke-linejoin="round" stroke-miterlimit="10" fill="#FFFFFF"/><text fill="#00B050" font-family="PMingLiU,PMingLiU_MSFontService,sans-serif" font-weight="400" font-size="16" transform="translate(166.031 86)">竟然</text><rect x="210.5" y="70.5001" width="52" height="22" stroke="#00B050" stroke-linejoin="round" stroke-miterlimit="10" fill="#FFFFFF"/><text fill="#00B050" font-family="PMingLiU,PMingLiU_MSFontService,sans-serif" font-weight="400" font-size="16" transform="translate(220.171 86)">有意</text><rect x="264.5" y="70.5001" width="52" height="22" stroke="#00B050" stroke-linejoin="round" stroke-miterlimit="10" fill="#FFFFFF"/><text fill="#00B050" font-family="PMingLiU,PMingLiU_MSFontService,sans-serif" font-weight="400" font-size="16" transform="translate(273.94 86)">想要</text><rect x="164.5" y="106.5" width="51" height="22" stroke="#00B050" stroke-linejoin="round" stroke-miterlimit="10" fill="none"/><text fill="#00B050" font-family="PMingLiU,PMingLiU_MSFontService,sans-serif" font-weight="400" font-size="16" transform="translate(173.566 122)">為我</text><rect x="218.5" y="105.5" width="20" height="23" stroke="#00B050" stroke-linejoin="round" stroke-miterlimit="10" fill="none"/><text fill="#00B050" font-family="PMingLiU,PMingLiU_MSFontService,sans-serif" font-weight="400" font-size="16" transform="translate(219.814 122)">到</text><rect x="240.5" y="105.5" width="52" height="23" stroke="#00B050" stroke-linejoin="round" stroke-miterlimit="10" fill="none"/><text fill="#00B050" font-family="PMingLiU,PMingLiU_MSFontService,sans-serif" font-weight="400" font-size="16" transform="translate(250.061 122)">薛邑</text><rect x="295.5" y="105.5" width="51" height="22" stroke="#00B050" stroke-linejoin="round" stroke-miterlimit="10" fill="none"/><text fill="#00B050" font-family="PMingLiU,PMingLiU_MSFontService,sans-serif" font-weight="400" font-size="16" transform="translate(304.55 122)">收債</text><rect x="349.5" y="105.5" width="20" height="22" stroke="#00B050" stroke-linejoin="round" stroke-miterlimit="10" fill="none"/><text fill="#00B050" font-family="PMingLiU,PMingLiU_MSFontService,sans-serif" font-weight="400" font-size="16" transform="translate(350.797 122)">嗎</text><rect x="341.5" y="18.5001" width="25" height="31" stroke="#172C51" stroke-width="1.33333" stroke-miterlimit="8" fill="#4472C4"/><text fill="#FFFFFF" font-family="DFKai-SB,DFKai-SB_MSFontService,sans-serif" font-weight="400" font-size="24" transform="translate(341.728 42)">薛</text><rect x="369.5" y="18.5001" width="25" height="31" stroke="#172C51" stroke-width="1.33333" stroke-miterlimit="8" fill="#4472C4"/><text fill="#FFFFFF" font-family="DFKai-SB,DFKai-SB_MSFontService,sans-serif" font-weight="400" font-size="24" transform="translate(369.344 42)">乎</text><path d="M0.180452-0.280264 87.1183 55.696 86.7574 56.2565-0.180452 0.280264ZM82.2904 48.6535 87.6666 56.4455 78.3482 54.7762C78.167 54.7437 78.0464 54.5705 78.0789 54.3893 78.1114 54.2081 78.2846 54.0875 78.4658 54.12L86.9967 55.6482 86.6635 56.1656 81.7417 49.0321C81.6371 48.8806 81.6752 48.673 81.8268 48.5684 81.9783 48.4639 82.1859 48.5019 82.2904 48.6535Z" fill="#4472C4" transform="matrix(-1 0 0 1 354.167 49.5001)"/><path d="M0.309159-0.124626 22.5314 55.0019 21.9131 55.2512-0.309159 0.124626ZM22.656 46.464 22.5461 55.9301 15.902 49.1867C15.7728 49.0555 15.7744 48.8445 15.9055 48.7153 16.0367 48.5861 16.2477 48.5876 16.3769 48.7188L22.4596 54.8923 21.8888 55.1224 21.9894 46.4563C21.9915 46.2722 22.1425 46.1247 22.3265 46.1269 22.5106 46.129 22.6581 46.28 22.656 46.464Z" fill="#4472C4" transform="matrix(-1 0 0 1 382.046 49.5001)"/><path d="M104.771 50.3061 118.642 69.7003 118.099 70.0882 104.229 50.694ZM116.753 61.3733 118.875 70.5992 110.83 65.6095C110.673 65.5125 110.625 65.307 110.722 65.1505 110.819 64.9941 111.025 64.9459 111.181 65.0429L118.546 69.611 118.046 69.9689 116.103 61.5228C116.062 61.3434 116.174 61.1645 116.353 61.1232 116.533 61.0819 116.712 61.1939 116.753 61.3733Z" fill="#4472C4"/><path d="M0.325153-0.0733936 4.67113 19.1804 4.02082 19.3272-0.325153 0.0733936ZM6.16442 10.7735 4.5368 20.0992-0.938918 12.3769C-1.0454 12.2267-1.00998 12.0187-0.859811 11.9122-0.709638 11.8057-0.501576 11.8411-0.395092 11.9913L4.61789 19.061 4.0176 19.1965 5.50769 10.6589C5.53934 10.4775 5.71201 10.3562 5.89337 10.3878 6.07472 10.4195 6.19608 10.5922 6.16442 10.7735Z" fill="#4472C4" transform="matrix(-1 0 0 1 76.0368 50.5001)"/><path d="M0.267961-0.198263 14.4533 18.9738 13.9174 19.3703-0.267961 0.198263ZM12.4302 10.6784 14.7008 19.8688 6.5763 15.0097C6.4183 14.9152 6.36683 14.7105 6.46132 14.5525 6.55581 14.3945 6.76049 14.3431 6.91848 14.4376L14.3564 18.886 13.8617 19.252 11.783 10.8383C11.7389 10.6596 11.8479 10.4789 12.0267 10.4348 12.2054 10.3906 12.3861 10.4997 12.4302 10.6784Z" fill="#4472C4" transform="matrix(-1 0 0 1 48.2008 50.5001)"/><path d="M20.7776 50.3155 33.5126 69.4626 32.9575 69.8318 20.2225 50.6847ZM31.9073 61.0763 33.715 70.3688 25.8439 65.1092C25.6908 65.0069 25.6497 64.7999 25.7519 64.6468 25.8542 64.4938 26.0612 64.4526 26.2143 64.5549L33.4202 69.37 32.9078 69.7108 31.2529 61.2037C31.2177 61.0229 31.3357 60.848 31.5164 60.8128 31.6971 60.7776 31.8721 60.8956 31.9073 61.0763Z" fill="#4472C4"/></g></svg>