<svg width="432" height="144" xmlns="http://www.w3.org/2000/svg" xmlns:xlink="http://www.w3.org/1999/xlink" overflow="hidden"><g><rect x="0" y="0" width="432" height="144" fill="#FFFFFF"/><path d="M0.297166-0.151007 31.8773 61.9954 31.283 62.2974-0.297166 0.151007ZM32.4493 52.92 31.8801 62.7366 23.6153 57.4091C23.4605 57.3094 23.416 57.1031 23.5157 56.9483 23.6154 56.7936 23.8217 56.749 23.9765 56.8488L31.761 61.8667 31.2476 62.1275 31.7838 52.8814C31.7944 52.6977 31.952 52.5573 32.1358 52.568 32.3196 52.5786 32.46 52.7362 32.4493 52.92Z" fill="#4472C4" transform="matrix(-1 0 0 1 215.379 50.5001)"/><rect x="7.50005" y="19.5001" width="26" height="31" stroke="#172C51" stroke-width="1.33333" stroke-miterlimit="8" fill="#4472C4"/><text fill="#FFFFFF" font-family="DFKai-SB,DFKai-SB_MSFontService,sans-serif" font-weight="400" font-size="24" transform="translate(7.9148 43)">文</text><rect x="35.5001" y="19.5001" width="26" height="31" stroke="#172C51" stroke-width="1.33333" stroke-miterlimit="8" fill="#4472C4"/><text fill="#FFFFFF" font-family="DFKai-SB,DFKai-SB_MSFontService,sans-serif" font-weight="400" font-size="24" transform="translate(35.8305 43)">倦</text><rect x="63.5001" y="19.5001" width="26" height="31" stroke="#172C51" stroke-width="1.33333" stroke-miterlimit="8" fill="#4472C4"/><text fill="#FFFFFF" font-family="DFKai-SB,DFKai-SB_MSFontService,sans-serif" font-weight="400" font-size="24" transform="translate(64.0006 43)">於</text><rect x="92.5001" y="19.5001" width="25" height="31" stroke="#172C51" stroke-width="1.33333" stroke-miterlimit="8" fill="#4472C4"/><text fill="#FFFFFF" font-family="DFKai-SB,DFKai-SB_MSFontService,sans-serif" font-weight="400" font-size="24" transform="translate(92.393 43)">事</text><rect x="7.50005" y="82.5001" width="19" height="26" stroke="#00B050" stroke-linejoin="round" stroke-miterlimit="10" fill="none"/><text fill="#00B050" font-family="PMingLiU,PMingLiU_MSFontService,sans-serif" font-weight="400" font-size="16" transform="translate(8.47496 100)">我</text><path d="M0.331478-0.0351182 3.70173 31.7764 3.03877 31.8467-0.331478 0.0351182ZM7.47213 23.5012 3.43995 32.4695-2.38191 24.5451C-2.4909 24.3968-2.45899 24.1881-2.31063 24.0791-2.16227 23.9701-1.95364 24.0021-1.84465 24.1504L3.63888 31.6142 3.06624 31.6749 6.8641 23.2278C6.93959 23.0599 7.1369 22.985 7.3048 23.0604 7.47271 23.1359 7.54762 23.3332 7.47213 23.5012Z" fill="#4472C4" transform="matrix(-1 0 0 1 19.9398 50.5001)"/><rect x="27.5001" y="82.5001" width="52" height="26" stroke="#00B050" stroke-linejoin="round" stroke-miterlimit="10" fill="none"/><text fill="#00B050" font-family="PMingLiU,PMingLiU_MSFontService,sans-serif" font-weight="400" font-size="16" transform="translate(37.27 100)">疲倦</text><path d="M48.8288 50.445 54.1592 82.2621 53.5017 82.3722 48.1713 50.5551ZM57.4229 73.774 53.9398 82.9695 47.6499 75.4113C47.5321 75.2698 47.5514 75.0596 47.6929 74.9419 47.8344 74.8241 48.0446 74.8434 48.1623 74.9849L54.0867 82.1038 53.5188 82.199 56.7994 73.5379C56.8646 73.3657 57.0571 73.279 57.2292 73.3442 57.4014 73.4094 57.4881 73.6019 57.4229 73.774Z" fill="#4472C4"/><path d="M76.8011 50.3569 92.1492 82.6382 91.5471 82.9244 76.199 50.6432ZM92.9597 73.5805 92.1322 83.3787 84.0106 77.8354C83.8585 77.7317 83.8194 77.5243 83.9232 77.3722 84.0269 77.2202 84.2343 77.181 84.3864 77.2848L92.0361 82.5059 91.516 82.7532 92.2954 73.5244C92.3109 73.341 92.4722 73.2048 92.6557 73.2203 92.8391 73.2358 92.9752 73.3971 92.9597 73.5805Z" fill="#4472C4"/><path d="M104.763 50.2957 129.772 82.5155 129.245 82.9243 104.237 50.7044ZM128.62 73.4949 129.914 83.2425 120.792 79.5708C120.621 79.502 120.539 79.3079 120.607 79.1371 120.676 78.9663 120.87 78.8836 121.041 78.9523L129.633 82.4107 129.178 82.7637 127.959 73.5827C127.935 73.4002 128.063 73.2326 128.246 73.2084 128.428 73.1841 128.596 73.3124 128.62 73.4949Z" fill="#4472C4"/><rect x="120.5" y="19.5001" width="25" height="31" stroke="#172C51" stroke-width="1.33333" stroke-miterlimit="8" fill="#4472C4"/><text fill="#FFFFFF" font-family="DFKai-SB,DFKai-SB_MSFontService,sans-serif" font-weight="400" font-size="24" transform="translate(120.563 43)">憒</text><path d="M133.681 50.2198 183.957 82.6039 183.596 83.1644 133.32 50.7803ZM179.874 74.4774 184.332 83.2421 174.509 82.8081C174.325 82.7999 174.182 82.6442 174.19 82.4603 174.198 82.2764 174.354 82.1339 174.538 82.142L183.791 82.5509 183.479 83.035 179.28 74.7797C179.197 74.6156 179.262 74.4149 179.426 74.3314 179.59 74.248 179.791 74.3134 179.874 74.4774Z" fill="#4472C4"/><rect x="148.5" y="19.5001" width="25" height="31" stroke="#172C51" stroke-width="1.33333" stroke-miterlimit="8" fill="#4472C4"/><text fill="#FFFFFF" font-family="DFKai-SB,DFKai-SB_MSFontService,sans-serif" font-weight="400" font-size="24" transform="translate(148.15 43)">於</text><path d="M160.657 50.2062 221.16 82.5933 220.845 83.1811 160.343 50.7939ZM216.435 74.8226 221.585 83.1992 211.759 83.5588C211.575 83.5655 211.42 83.4219 211.414 83.2379 211.407 83.0539 211.551 82.8993 211.735 82.8926L220.99 82.5538 220.718 83.0615 215.868 75.1717C215.771 75.0149 215.82 74.8096 215.977 74.7132 216.134 74.6168 216.339 74.6657 216.435 74.8226Z" fill="#4472C4"/><rect x="175.5" y="19.5001" width="25" height="31" stroke="#172C51" stroke-width="1.33333" stroke-miterlimit="8" fill="#4472C4"/><text fill="#FFFFFF" font-family="DFKai-SB,DFKai-SB_MSFontService,sans-serif" font-weight="400" font-size="24" transform="translate(175.737 43)">憂</text><path d="M188.64 50.1976 259.073 82.7973 258.793 83.4023 188.36 50.8026ZM253.907 75.3139 259.534 83.3779 249.745 84.3066C249.562 84.324 249.399 84.1895 249.382 84.0062 249.364 83.8229 249.499 83.6603 249.682 83.6429L258.902 82.7682 258.66 83.2907 253.361 75.6954C253.255 75.5444 253.292 75.3366 253.443 75.2313 253.594 75.126 253.802 75.1629 253.907 75.3139Z" fill="#4472C4"/><rect x="203.5" y="19.5001" width="25" height="31" stroke="#172C51" stroke-width="1.33333" stroke-miterlimit="8" fill="#4472C4"/><text fill="#FFFFFF" font-family="DFKai-SB,DFKai-SB_MSFontService,sans-serif" font-weight="400" font-size="24" transform="translate(203.324 43)">而</text><rect x="230.5" y="19.5001" width="26" height="31" stroke="#172C51" stroke-width="1.33333" stroke-miterlimit="8" fill="#4472C4"/><text fill="#FFFFFF" font-family="DFKai-SB,DFKai-SB_MSFontService,sans-serif" font-weight="400" font-size="24" transform="translate(230.953 43)">性</text><path d="M0.332129-0.0283044 5.62246 62.0496 4.9582 62.1062-0.332129 0.0283044ZM9.56196 53.8531 5.34648 62.7368-0.311437 54.6946C-0.417365 54.544-0.381178 54.3361-0.230612 54.2301-0.0800452 54.1242 0.127884 54.1604 0.233812 54.311L5.56293 61.8858 4.98916 61.9347 8.95966 53.5673C9.03859 53.401 9.23739 53.3302 9.40371 53.4091 9.57003 53.488 9.64088 53.6868 9.56196 53.8531Z" fill="#4472C4" transform="matrix(-1 0 0 1 243.846 50.5001)"/><rect x="258.5" y="19.5001" width="25" height="31" stroke="#172C51" stroke-width="1.33333" stroke-miterlimit="8" fill="#4472C4"/><text fill="#FFFFFF" font-family="DFKai-SB,DFKai-SB_MSFontService,sans-serif" font-weight="400" font-size="24" transform="translate(258.497 43)">懧</text><path d="M270.816 50.3928 291.928 112.504 291.297 112.718 270.184 50.6073ZM293.783 103.6 291.826 113.237 284.401 106.79C284.262 106.669 284.247 106.458 284.368 106.319 284.489 106.18 284.699 106.166 284.838 106.286L291.831 112.359 291.286 112.544 293.13 103.468C293.166 103.287 293.342 103.171 293.523 103.207 293.703 103.244 293.82 103.42 293.783 103.6Z" fill="#4472C4"/><rect x="285.5" y="19.5001" width="26" height="31" stroke="#172C51" stroke-width="1.33333" stroke-miterlimit="8" fill="#4472C4"/><text fill="#FFFFFF" font-family="DFKai-SB,DFKai-SB_MSFontService,sans-serif" font-weight="400" font-size="24" transform="translate(286.042 43)">愚</text><path d="M298.765 50.2975 346.36 112.508 345.83 112.913 298.235 50.7026ZM345.272 103.48 346.497 113.236 337.401 109.501C337.231 109.431 337.15 109.237 337.22 109.066 337.29 108.896 337.484 108.815 337.655 108.885L346.222 112.403 345.765 112.753 344.61 103.563C344.587 103.381 344.717 103.214 344.899 103.191 345.082 103.168 345.249 103.298 345.272 103.48Z" fill="#4472C4"/><rect x="82.5001" y="83.5001" width="19" height="25" stroke="#00B050" stroke-linejoin="round" stroke-miterlimit="10" fill="none"/><text fill="#00B050" font-family="PMingLiU,PMingLiU_MSFontService,sans-serif" font-weight="400" font-size="16" transform="translate(83.632 100)">於</text><rect x="104.5" y="82.5001" width="51" height="25" stroke="#00B050" stroke-linejoin="round" stroke-miterlimit="10" fill="none"/><text fill="#00B050" font-family="PMingLiU,PMingLiU_MSFontService,sans-serif" font-weight="400" font-size="16" transform="translate(111.806 100)">國事</text><text fill="#00B050" font-family="Calibri,Calibri_MSFontService,sans-serif" font-weight="400" font-size="16" transform="translate(143.806 100)">,</text><rect x="157.5" y="82.5001" width="52" height="25" stroke="#00B050" stroke-linejoin="round" stroke-miterlimit="10" fill="#FFFFFF"/><text fill="#00B050" font-family="PMingLiU,PMingLiU_MSFontService,sans-serif" font-weight="400" font-size="16" transform="translate(167.391 100)">昏聵</text><rect x="233.5" y="83.5001" width="51" height="25" stroke="#00B050" stroke-linejoin="round" stroke-miterlimit="10" fill="none"/><text fill="#00B050" font-family="PMingLiU,PMingLiU_MSFontService,sans-serif" font-weight="400" font-size="16" transform="translate(242.77 100)">憂慮</text><rect x="212.5" y="82.5001" width="18" height="25" stroke="#00B050" stroke-linejoin="round" stroke-miterlimit="10" fill="none"/><text fill="#00B050" font-family="PMingLiU,PMingLiU_MSFontService,sans-serif" font-weight="400" font-size="16" transform="translate(213.005 100)">於</text><rect x="157.5" y="112.5" width="52" height="25" stroke="#00B050" stroke-linejoin="round" stroke-miterlimit="10" fill="none"/><text fill="#00B050" font-family="PMingLiU,PMingLiU_MSFontService,sans-serif" font-weight="400" font-size="16" transform="translate(167.391 130)">而且</text><rect x="212.5" y="112.5" width="52" height="25" stroke="#00B050" stroke-linejoin="round" stroke-miterlimit="10" fill="none"/><text fill="#00B050" font-family="PMingLiU,PMingLiU_MSFontService,sans-serif" font-weight="400" font-size="16" transform="translate(221.607 130)">生性</text><rect x="266.5" y="112.5" width="52" height="25" stroke="#00B050" stroke-linejoin="round" stroke-miterlimit="10" fill="none"/><text fill="#00B050" font-family="PMingLiU,PMingLiU_MSFontService,sans-serif" font-weight="400" font-size="16" transform="translate(275.823 130)">懦弱</text><rect x="320.5" y="112.5" width="52" height="25" stroke="#00B050" stroke-linejoin="round" stroke-miterlimit="10" fill="none"/><text fill="#00B050" font-family="PMingLiU,PMingLiU_MSFontService,sans-serif" font-weight="400" font-size="16" transform="translate(330.039 130)">愚蠢</text></g></svg>