<svg width="432" height="144" xmlns="http://www.w3.org/2000/svg" xmlns:xlink="http://www.w3.org/1999/xlink" overflow="hidden"><g><rect x="0" y="0" width="432" height="144" fill="#FFFFFF"/><rect x="7.50005" y="19.5001" width="26" height="31" stroke="#172C51" stroke-width="1.33333" stroke-miterlimit="8" fill="#4472C4"/><text fill="#FFFFFF" font-family="DFKai-SB,DFKai-SB_MSFontService,sans-serif" font-weight="400" font-size="24" transform="translate(7.9148 43)">沉</text><rect x="35.5001" y="19.5001" width="26" height="31" stroke="#172C51" stroke-width="1.33333" stroke-miterlimit="8" fill="#4472C4"/><text fill="#FFFFFF" font-family="DFKai-SB,DFKai-SB_MSFontService,sans-serif" font-weight="400" font-size="24" transform="translate(35.8305 43)">於</text><rect x="63.5001" y="19.5001" width="26" height="31" stroke="#172C51" stroke-width="1.33333" stroke-miterlimit="8" fill="#4472C4"/><text fill="#FFFFFF" font-family="DFKai-SB,DFKai-SB_MSFontService,sans-serif" font-weight="400" font-size="24" transform="translate(64.0006 43)">國</text><rect x="92.5001" y="19.5001" width="25" height="31" stroke="#172C51" stroke-width="1.33333" stroke-miterlimit="8" fill="#4472C4"/><text fill="#FFFFFF" font-family="DFKai-SB,DFKai-SB_MSFontService,sans-serif" font-weight="400" font-size="24" transform="translate(92.393 43)">家</text><path d="M104.822 50.4131 113.27 81.659 112.626 81.833 104.178 50.5871ZM115.687 72.8923 113.121 82.3847 106.121 75.4787C105.99 75.3494 105.989 75.1383 106.118 75.0073 106.247 74.8762 106.458 74.8748 106.589 75.0041L113.182 81.5088 112.626 81.6591 115.043 72.7184C115.091 72.5407 115.274 72.4355 115.452 72.4836 115.63 72.5316 115.735 72.7146 115.687 72.8923Z" fill="#4472C4"/><rect x="120.5" y="19.5001" width="25" height="31" stroke="#172C51" stroke-width="1.33333" stroke-miterlimit="8" fill="#4472C4"/><text fill="#FFFFFF" font-family="DFKai-SB,DFKai-SB_MSFontService,sans-serif" font-weight="400" font-size="24" transform="translate(120.563 43)">之</text><path d="M133.776 50.3131 155.005 81.6496 154.453 82.0235 133.224 50.687ZM154.438 72.5736 155.1 82.3844 146.234 78.1312C146.068 78.0516 145.998 77.8525 146.078 77.6865 146.157 77.5205 146.356 77.4505 146.522 77.5302L154.873 81.5361 154.396 81.8591 153.773 72.6185C153.76 72.4348 153.899 72.2758 154.083 72.2635 154.267 72.2511 154.426 72.3899 154.438 72.5736Z" fill="#4472C4"/><rect x="148.5" y="19.5001" width="25" height="31" stroke="#172C51" stroke-width="1.33333" stroke-miterlimit="8" fill="#4472C4"/><text fill="#FFFFFF" font-family="DFKai-SB,DFKai-SB_MSFontService,sans-serif" font-weight="400" font-size="24" transform="translate(148.15 43)">事</text><path d="M160.719 50.2484 197.435 82.1348 196.998 82.6381 160.281 50.7517ZM194.552 73.5101 197.716 82.8201 188.054 80.9917C187.874 80.9575 187.755 80.7831 187.789 80.6022 187.823 80.4213 187.998 80.3024 188.178 80.3367L197.279 82.0588 196.901 82.4936 193.921 73.7246C193.861 73.5503 193.955 73.3609 194.129 73.3017 194.303 73.2425 194.493 73.3358 194.552 73.5101Z" fill="#4472C4"/><rect x="175.5" y="19.5001" width="25" height="31" stroke="#172C51" stroke-width="1.33333" stroke-miterlimit="8" fill="#4472C4"/><text fill="#FFFFFF" font-family="DFKai-SB,DFKai-SB_MSFontService,sans-serif" font-weight="400" font-size="24" transform="translate(175.737 43)">開</text><path d="M188.626 50.1913 268.4 82.6405 268.149 83.258 188.374 50.8088ZM262.888 75.4092 268.888 83.1989 259.154 84.5881C258.972 84.6141 258.803 84.4874 258.777 84.3052 258.751 84.1229 258.878 83.9541 259.06 83.9281L268.228 82.6197 268.012 83.1531 262.359 75.8161C262.247 75.6702 262.274 75.4609 262.42 75.3486 262.566 75.2362 262.775 75.2634 262.888 75.4092Z" fill="#4472C4"/><rect x="203.5" y="19.5001" width="25" height="31" stroke="#172C51" stroke-width="1.33333" stroke-miterlimit="8" fill="#4472C4"/><text fill="#FFFFFF" font-family="DFKai-SB,DFKai-SB_MSFontService,sans-serif" font-weight="400" font-size="24" transform="translate(203.324 43)">罪</text><path d="M215.676 50.2167 267.915 82.5676 267.564 83.1344 215.325 50.7834ZM263.689 74.515 268.301 83.1991 258.472 82.9395C258.288 82.9346 258.142 82.7815 258.147 82.5975 258.152 82.4134 258.305 82.2682 258.489 82.2731L267.748 82.5176 267.445 83.0072 263.1 74.8277C263.014 74.6651 263.076 74.4633 263.238 74.3769 263.401 74.2906 263.603 74.3524 263.689 74.515Z" fill="#4472C4"/><rect x="230.5" y="19.5001" width="26" height="31" stroke="#172C51" stroke-width="1.33333" stroke-miterlimit="8" fill="#4472C4"/><text fill="#FFFFFF" font-family="DFKai-SB,DFKai-SB_MSFontService,sans-serif" font-weight="400" font-size="24" transform="translate(230.953 43)">於</text><path d="M243.541 50.1693 324.566 60.323 324.483 60.9845 243.459 50.8308ZM323.699 56.519 331.139 61.4827 322.704 64.4569Z" fill="#4472C4"/><rect x="258.5" y="19.5001" width="25" height="31" stroke="#172C51" stroke-width="1.33333" stroke-miterlimit="8" fill="#4472C4"/><text fill="#FFFFFF" font-family="DFKai-SB,DFKai-SB_MSFontService,sans-serif" font-weight="400" font-size="24" transform="translate(258.497 43)">先</text><path d="M270.756 50.2867 322.503 112.425 321.991 112.852 270.244 50.7134ZM321.042 103.45 322.67 113.147 313.428 109.791C313.255 109.728 313.165 109.537 313.228 109.364 313.291 109.191 313.482 109.101 313.655 109.164L322.361 112.325 321.918 112.694 320.385 103.56C320.354 103.378 320.477 103.207 320.658 103.176 320.84 103.146 321.012 103.268 321.042 103.45Z" fill="#4472C4"/><rect x="285.5" y="19.5001" width="26" height="31" stroke="#172C51" stroke-width="1.33333" stroke-miterlimit="8" fill="#4472C4"/><text fill="#FFFFFF" font-family="DFKai-SB,DFKai-SB_MSFontService,sans-serif" font-weight="400" font-size="24" transform="translate(286.042 43)">生</text><path d="M298.81 50.3781 323.194 112.41 322.573 112.654 298.19 50.622ZM324.629 103.43 323.125 113.147 315.407 107.055C315.262 106.941 315.238 106.731 315.352 106.587 315.466 106.442 315.675 106.418 315.82 106.532L323.09 112.27 322.554 112.481 323.97 103.328C323.999 103.146 324.169 103.021 324.351 103.049 324.533 103.078 324.657 103.248 324.629 103.43Z" fill="#4472C4"/><rect x="62.5001" y="82.5001" width="19" height="25" stroke="#00B050" stroke-linejoin="round" stroke-miterlimit="10" fill="none"/><text fill="#00B050" font-family="PMingLiU,PMingLiU_MSFontService,sans-serif" font-weight="400" font-size="16" transform="translate(63.5964 100)">於</text><path d="M48.7666 50.2999 72.1363 81.4249 71.6032 81.8252 48.2335 50.7002ZM71.1293 72.3871 72.267 82.1541 63.2051 78.3368C63.0355 78.2653 62.9559 78.0699 63.0273 77.9002 63.0988 77.7305 63.2943 77.6509 63.4639 77.7224L71.9992 81.3179 71.5387 81.6636 70.4671 72.4642C70.4458 72.2813 70.5768 72.1158 70.7596 72.0945 70.9425 72.0732 71.108 72.2042 71.1293 72.3871Z" fill="#4472C4"/><rect x="8.50005" y="82.5001" width="51" height="25" stroke="#00B050" stroke-linejoin="round" stroke-miterlimit="10" fill="none"/><text fill="#00B050" font-family="PMingLiU,PMingLiU_MSFontService,sans-serif" font-weight="400" font-size="16" transform="translate(17.4072 100)">埋頭</text><path d="M20.8067 50.3693 34.0403 81.4151 33.4271 81.6766 20.1934 50.6308ZM35.2203 72.3981 33.993 82.1543 26.1047 76.2837C25.957 76.1738 25.9264 75.965 26.0363 75.8173 26.1462 75.6696 26.3551 75.639 26.5027 75.7489L33.9326 81.2783 33.4029 81.5041 34.5589 72.3149C34.5818 72.1322 34.7485 72.0028 34.9312 72.0258 35.1138 72.0488 35.2433 72.2155 35.2203 72.3981Z" fill="#4472C4"/><rect x="85.5001" y="82.5001" width="56" height="25" stroke="#00B050" stroke-linejoin="round" stroke-miterlimit="10" fill="none"/><text fill="#00B050" font-family="PMingLiU,PMingLiU_MSFontService,sans-serif" font-weight="400" font-size="19" transform="translate(94.3468 101)">國家</text><rect x="144.5" y="82.5001" width="21" height="25" stroke="#00B050" stroke-linejoin="round" stroke-miterlimit="10" fill="none"/><text fill="#00B050" font-family="PMingLiU,PMingLiU_MSFontService,sans-serif" font-weight="400" font-size="19" transform="translate(144.833 101)">的</text><rect x="168.5" y="82.5001" width="59" height="25" stroke="#00B050" stroke-linejoin="round" stroke-miterlimit="10" fill="none"/><text fill="#00B050" font-family="PMingLiU,PMingLiU_MSFontService,sans-serif" font-weight="400" font-size="19" transform="translate(178.698 101)">事務</text><rect x="230.5" y="82.5001" width="76" height="26" stroke="#00B050" stroke-linejoin="round" stroke-miterlimit="10" fill="none"/><text fill="#00B050" font-family="PMingLiU,PMingLiU_MSFontService,sans-serif" font-weight="400" font-size="19" transform="translate(240.124 102)">得罪了</text><path d="M76.7176 50.2475 113.23 81.6998 112.795 82.2049 76.2825 50.7526ZM110.312 73.087 113.514 82.3842 103.845 80.5947C103.664 80.5612 103.545 80.3873 103.578 80.2063 103.612 80.0253 103.785 79.9057 103.967 79.9392L113.073 81.6247 112.698 82.061 109.682 73.304C109.622 73.13 109.715 72.9403 109.889 72.8803 110.063 72.8204 110.253 72.9129 110.312 73.087Z" fill="#4472C4"/><rect x="294.5" y="112.5" width="57" height="25" stroke="#00B050" stroke-linejoin="round" stroke-miterlimit="10" fill="none"/><text fill="#00B050" font-family="PMingLiU,PMingLiU_MSFontService,sans-serif" font-weight="400" font-size="19" transform="translate(304 132)">先生</text><rect x="331.5" y="29.5001" width="24" height="63" stroke="#FF0000" stroke-linejoin="round" stroke-miterlimit="10" fill="none"/><text fill="#FF0000" font-family="PMingLiU,PMingLiU_MSFontService,sans-serif" font-weight="400" font-size="16" transform="translate(334.885 47)">不</text><text fill="#FF0000" font-family="PMingLiU,PMingLiU_MSFontService,sans-serif" font-weight="400" font-size="16" transform="translate(334.885 67)">翻</text><text fill="#FF0000" font-family="PMingLiU,PMingLiU_MSFontService,sans-serif" font-weight="400" font-size="16" transform="translate(334.885 85)">譯</text></g></svg>