<svg width="432" height="144" xmlns="http://www.w3.org/2000/svg" xmlns:xlink="http://www.w3.org/1999/xlink" overflow="hidden"><g><rect x="0" y="0" width="432" height="144" fill="#FFFFFF"/><path d="M0 0 28.2618 20.1657" stroke="#4472C4" stroke-linejoin="round" stroke-miterlimit="10" stroke-dasharray="4 3" fill="none" fill-rule="evenodd" transform="matrix(1 0 0 -1 15.5001 53.6657)"/><rect x="228.5" y="10.5001" width="52" height="23" stroke="#00B050" stroke-linejoin="round" stroke-miterlimit="10" fill="#FFFFFF"/><text fill="#00B050" font-family="PMingLiU,PMingLiU_MSFontService,sans-serif" font-weight="400" font-size="16" transform="translate(237.749 27)">官吏</text><rect x="2.50005" y="112.5" width="52" height="23" stroke="#00B050" stroke-linejoin="round" stroke-miterlimit="10" fill="#FFFFFF"/><text fill="#00B050" font-family="PMingLiU,PMingLiU_MSFontService,sans-serif" font-weight="400" font-size="16" transform="translate(11.7936 129)">召集</text><rect x="55.5001" y="113.5" width="52" height="22" stroke="#00B050" stroke-linejoin="round" stroke-miterlimit="10" fill="none"/><text fill="#00B050" font-family="PMingLiU,PMingLiU_MSFontService,sans-serif" font-weight="400" font-size="16" transform="translate(65.2462 129)">應當</text><rect x="109.5" y="113.5" width="57" height="22" stroke="#00B050" stroke-linejoin="round" stroke-miterlimit="10" fill="none"/><text fill="#00B050" font-family="PMingLiU,PMingLiU_MSFontService,sans-serif" font-weight="400" font-size="16" transform="translate(121.562 129)">還債</text><rect x="169.5" y="113.5" width="78" height="22" stroke="#00B050" stroke-linejoin="round" stroke-miterlimit="10" fill="none"/><text fill="#00B050" font-family="PMingLiU,PMingLiU_MSFontService,sans-serif" font-weight="400" font-size="16" transform="translate(178.721 130)">(</text><text fill="#00B050" font-family="PMingLiU,PMingLiU_MSFontService,sans-serif" font-weight="400" font-size="16" transform="translate(183.721 130)">的</text><text fill="#00B050" font-family="PMingLiU,PMingLiU_MSFontService,sans-serif" font-weight="400" font-size="16" transform="translate(199.721 130)">)</text><text fill="#00B050" font-family="PMingLiU,PMingLiU_MSFontService,sans-serif" font-weight="400" font-size="16" transform="translate(204.721 130)">民眾</text><rect x="249.5" y="113.5" width="21" height="23" stroke="#00B050" stroke-linejoin="round" stroke-miterlimit="10" fill="none"/><text fill="#00B050" font-family="PMingLiU,PMingLiU_MSFontService,sans-serif" font-weight="400" font-size="16" transform="translate(251.408 130)">都</text><rect x="297.5" y="112.5" width="53" height="23" stroke="#00B050" stroke-linejoin="round" stroke-miterlimit="10" fill="none"/><text fill="#00B050" font-family="PMingLiU,PMingLiU_MSFontService,sans-serif" font-weight="400" font-size="16" transform="translate(307.421 129)">核對</text><rect x="364.5" y="52.5001" width="25" height="30" stroke="#172C51" stroke-width="1.33333" stroke-miterlimit="8" fill="#4472C4"/><text fill="#FFFFFF" font-family="DFKai-SB,DFKai-SB_MSFontService,sans-serif" font-weight="400" font-size="24" transform="translate(364.214 76)">來</text><path d="M0 0 69.3747 20.1658" stroke="#4472C4" stroke-linejoin="round" stroke-miterlimit="10" stroke-dasharray="4 3" fill="none" fill-rule="evenodd" transform="matrix(1 0 0 -1 43.5001 53.6658)"/><rect x="391.5" y="52.5001" width="25" height="30" stroke="#172C51" stroke-width="1.33333" stroke-miterlimit="8" fill="#4472C4"/><text fill="#FFFFFF" font-family="DFKai-SB,DFKai-SB_MSFontService,sans-serif" font-weight="400" font-size="24" transform="translate(391.772 76)">合</text><rect x="406.5" y="86.5001" width="25" height="31" stroke="#172C51" stroke-width="1.33333" stroke-miterlimit="8" fill="#4472C4"/><text fill="#FFFFFF" font-family="DFKai-SB,DFKai-SB_MSFontService,sans-serif" font-weight="400" font-size="24" transform="translate(406.191 110)">券</text><rect x="352.5" y="112.5" width="53" height="23" stroke="#00B050" stroke-linejoin="round" stroke-miterlimit="10" fill="none"/><text fill="#00B050" font-family="PMingLiU,PMingLiU_MSFontService,sans-serif" font-weight="400" font-size="16" transform="translate(362.809 129)">債券</text><rect x="198.5" y="53.5001" width="25" height="30" stroke="#172C51" stroke-width="1.33333" stroke-miterlimit="8" fill="#4472C4"/><text fill="#FFFFFF" font-family="DFKai-SB,DFKai-SB_MSFontService,sans-serif" font-weight="400" font-size="24" transform="translate(198.194 76)">諸</text><rect x="225.5" y="53.5001" width="25" height="30" stroke="#172C51" stroke-width="1.33333" stroke-miterlimit="8" fill="#4472C4"/><text fill="#FFFFFF" font-family="DFKai-SB,DFKai-SB_MSFontService,sans-serif" font-weight="400" font-size="24" transform="translate(225.823 76)">民</text><rect x="253.5" y="53.5001" width="25" height="30" stroke="#172C51" stroke-width="1.33333" stroke-miterlimit="8" fill="#4472C4"/><text fill="#FFFFFF" font-family="DFKai-SB,DFKai-SB_MSFontService,sans-serif" font-weight="400" font-size="24" transform="translate(253.368 76)">當</text><rect x="280.5" y="53.5001" width="25" height="30" stroke="#172C51" stroke-width="1.33333" stroke-miterlimit="8" fill="#4472C4"/><text fill="#FFFFFF" font-family="DFKai-SB,DFKai-SB_MSFontService,sans-serif" font-weight="400" font-size="24" transform="translate(280.912 76)">償</text><rect x="308.5" y="52.5001" width="25" height="31" stroke="#172C51" stroke-width="1.33333" stroke-miterlimit="8" fill="#4472C4"/><text fill="#FFFFFF" font-family="DFKai-SB,DFKai-SB_MSFontService,sans-serif" font-weight="400" font-size="24" transform="translate(308.457 76)">者</text><rect x="336.5" y="52.5001" width="25" height="30" stroke="#172C51" stroke-width="1.33333" stroke-miterlimit="8" fill="#4472C4"/><text fill="#FFFFFF" font-family="DFKai-SB,DFKai-SB_MSFontService,sans-serif" font-weight="400" font-size="24" transform="translate(336.598 76)">悉</text><rect x="2.50005" y="53.5001" width="26" height="30" stroke="#172C51" stroke-width="1.33333" stroke-miterlimit="8" fill="#4472C4"/><text fill="#FFFFFF" font-family="DFKai-SB,DFKai-SB_MSFontService,sans-serif" font-weight="400" font-size="24" transform="translate(2.71312 77)">驅</text><rect x="30.5001" y="53.5001" width="25" height="30" stroke="#172C51" stroke-width="1.33333" stroke-miterlimit="8" fill="#4472C4"/><text fill="#FFFFFF" font-family="DFKai-SB,DFKai-SB_MSFontService,sans-serif" font-weight="400" font-size="24" transform="translate(30.6288 77)">而</text><rect x="58.5001" y="53.5001" width="26" height="30" stroke="#172C51" stroke-width="1.33333" stroke-miterlimit="8" fill="#4472C4"/><text fill="#FFFFFF" font-family="DFKai-SB,DFKai-SB_MSFontService,sans-serif" font-weight="400" font-size="24" transform="translate(58.7989 76)">之</text><rect x="87.5001" y="53.5001" width="25" height="30" stroke="#172C51" stroke-width="1.33333" stroke-miterlimit="8" fill="#4472C4"/><text fill="#FFFFFF" font-family="DFKai-SB,DFKai-SB_MSFontService,sans-serif" font-weight="400" font-size="24" transform="translate(87.1913 76)">薛</text><rect x="115.5" y="53.5001" width="25" height="30" stroke="#172C51" stroke-width="1.33333" stroke-miterlimit="8" fill="#4472C4"/><text fill="#FFFFFF" font-family="DFKai-SB,DFKai-SB_MSFontService,sans-serif" font-weight="400" font-size="24" transform="translate(115.361 76)">使</text><rect x="142.5" y="53.5001" width="26" height="30" stroke="#172C51" stroke-width="1.33333" stroke-miterlimit="8" fill="#4472C4"/><text fill="#FFFFFF" font-family="DFKai-SB,DFKai-SB_MSFontService,sans-serif" font-weight="400" font-size="24" transform="translate(142.948 76)">吏</text><rect x="170.5" y="53.5001" width="25" height="30" stroke="#172C51" stroke-width="1.33333" stroke-miterlimit="8" fill="#4472C4"/><text fill="#FFFFFF" font-family="DFKai-SB,DFKai-SB_MSFontService,sans-serif" font-weight="400" font-size="24" transform="translate(170.535 76)">召</text><rect x="2.50005" y="10.5001" width="82" height="23" stroke="#00B050" stroke-linejoin="round" stroke-miterlimit="10" fill="none"/><text fill="#00B050" font-family="PMingLiU,PMingLiU_MSFontService,sans-serif" font-weight="400" font-size="15" transform="translate(13.6416 27)">驅趕馬車</text><rect x="139.5" y="10.5001" width="19" height="23" stroke="#00B050" stroke-linejoin="round" stroke-miterlimit="10" fill="none"/><text fill="#00B050" font-family="PMingLiU,PMingLiU_MSFontService,sans-serif" font-weight="400" font-size="16" transform="translate(140.823 27)">到</text><rect x="161.5" y="10.5001" width="39" height="23" stroke="#00B050" stroke-linejoin="round" stroke-miterlimit="10" fill="none"/><text fill="#00B050" font-family="PMingLiU,PMingLiU_MSFontService,sans-serif" font-weight="400" font-size="19" transform="translate(168.478 28)">薛</text><text fill="#00B050" font-family="Calibri,Calibri_MSFontService,sans-serif" font-weight="400" font-size="19" transform="translate(187.145 28)">,</text><rect x="202.5" y="10.5001" width="23" height="23" stroke="#00B050" stroke-linejoin="round" stroke-miterlimit="10" fill="#FFFFFF"/><text fill="#00B050" font-family="PMingLiU,PMingLiU_MSFontService,sans-serif" font-weight="400" font-size="16" transform="translate(205.345 27)">派</text><rect x="87.5001" y="10.5001" width="50" height="23" stroke="#00B050" stroke-linejoin="round" stroke-miterlimit="10" fill="none"/><text fill="#00B050" font-family="PMingLiU,PMingLiU_MSFontService,sans-serif" font-weight="400" font-size="15" transform="translate(97.3369 27)">而後</text><path d="M0 0 80.9535 19.9007" stroke="#4472C4" stroke-linejoin="round" stroke-miterlimit="10" stroke-dasharray="4 3" fill="none" fill-rule="evenodd" transform="matrix(1 0 0 -1 99.5001 53.4007)"/><path d="M0 0 78.024 19.6153" stroke="#4472C4" stroke-linejoin="round" stroke-miterlimit="10" stroke-dasharray="4 3" fill="none" fill-rule="evenodd" transform="matrix(1 0 0 -1 71.5001 53.1154)"/><path d="M0 0 85.9836 19.9354" stroke="#4472C4" stroke-linejoin="round" stroke-miterlimit="10" stroke-dasharray="4 3" fill="none" fill-rule="evenodd" transform="matrix(1 0 0 -1 127.5 53.4355)"/><path d="M0 0 95.3727 19.3301" stroke="#4472C4" stroke-linejoin="round" stroke-miterlimit="10" stroke-dasharray="4 3" fill="none" fill-rule="evenodd" transform="matrix(1 0 0 -1 155.5 52.8301)"/><path d="M0 0 154.742 29.2021" stroke="#4472C4" stroke-linejoin="round" stroke-miterlimit="10" stroke-dasharray="4 3" fill="none" fill-rule="evenodd" transform="matrix(-1 0 0 1 183.242 83.5001)"/><path d="M0 0 30.1019 29.9436" stroke="#4472C4" stroke-linejoin="round" stroke-miterlimit="10" stroke-dasharray="4 3" fill="none" fill-rule="evenodd" transform="matrix(-1 0 0 1 238.602 83.5001)"/><path d="M0 0 184.121 29.4815" stroke="#4472C4" stroke-linejoin="round" stroke-miterlimit="10" stroke-dasharray="4 3" fill="none" fill-rule="evenodd" transform="matrix(-1 0 0 1 265.621 83.5001)"/><path d="M0 0 155.351 29.5465" stroke="#4472C4" stroke-linejoin="round" stroke-miterlimit="10" stroke-dasharray="4 3" fill="none" fill-rule="evenodd" transform="matrix(-1 0 0 1 293.851 83.5001)"/><path d="M0 0 112.736 30.2634" stroke="#4472C4" stroke-linejoin="round" stroke-miterlimit="10" stroke-dasharray="4 3" fill="none" fill-rule="evenodd" transform="matrix(-1 0 0 1 321.236 83.5001)"/><path d="M0 0 89.1896 30.7512" stroke="#4472C4" stroke-linejoin="round" stroke-miterlimit="10" stroke-dasharray="4 3" fill="none" fill-rule="evenodd" transform="matrix(-1 0 0 1 348.69 82.5001)"/><rect x="273.5" y="113.5" width="21" height="22" stroke="#00B050" stroke-linejoin="round" stroke-miterlimit="10" fill="none"/><text fill="#00B050" font-family="PMingLiU,PMingLiU_MSFontService,sans-serif" font-weight="400" font-size="16" transform="translate(275.404 130)">來</text><path d="M0 0 92.8099 30.5668" stroke="#4472C4" stroke-linejoin="round" stroke-miterlimit="10" stroke-dasharray="4 3" fill="none" fill-rule="evenodd" transform="matrix(-1 0 0 1 376.31 82.5001)"/><path d="M0 0 80.3505 29.87" stroke="#4472C4" stroke-linejoin="round" stroke-miterlimit="10" stroke-dasharray="4 3" fill="none" fill-rule="evenodd" transform="matrix(-1 0 0 1 403.851 82.5001)"/><path d="M0 0C13.3998 0 26.7997 5.45261 26.7997 10.9052" stroke="#4472C4" stroke-linejoin="round" stroke-miterlimit="10" stroke-dasharray="4 3" fill="none" fill-rule="evenodd" transform="matrix(-1 1.22465e-16 1.22465e-16 1 406.3 101.5)"/><path d="M168.5 51.5001C168.5 49.2909 172.065 47.5 176.462 47.5L242.425 47.5002C246.822 47.5002 250.387 45.7093 250.387 43.5001 250.387 45.7093 253.952 47.5002 258.349 47.5002L327.538 47.5002C331.935 47.5002 335.5 49.2911 335.5 51.5003" stroke="#FF0000" stroke-width="0.666667" stroke-miterlimit="8" fill="none" fill-rule="evenodd"/></g></svg>